<svg width="36" height="36" viewBox="0 0 36 36" fill="none" xmlns="http://www.w3.org/2000/svg">
<path d="M2.44434 0L12.8148 10.3704V4.17274H16.2716V16.2716H4.17274V12.8148H10.3704L0 2.44434L2.44434 0Z" fill="white"/>
<path d="M36 2.44434L25.6296 12.8148L31.8273 12.8148V16.2716L19.7284 16.2716V4.17274H23.1852V10.3704L33.5557 0L36 2.44434Z" fill="white"/>
<path d="M4.17274 19.7284H16.2716V31.8273H12.8148V25.6296L2.44434 36L0 33.5557L10.3704 23.1852H4.17274V19.7284Z" fill="white"/>
<path d="M19.7284 19.7284H31.8273V23.1852H25.6296L36 33.5557L33.5557 36L23.1852 25.6296V31.8273H19.7284V19.7284Z" fill="white"/>
</svg>
