<svg width="67" height="59" viewBox="0 0 67 59" fill="none" xmlns="http://www.w3.org/2000/svg">
<g filter="url(#filter0_d_3_2074)">
<path d="M14.8855 23.449C14.8371 23.4497 14.7886 23.45 14.74 23.45C8.81951 23.45 4.02 18.6505 4.02 12.73C4.02 6.80951 8.81951 2.01 14.74 2.01C20.6605 2.01 25.46 6.80951 25.46 12.73C25.46 16.7156 23.285 20.1932 20.0571 22.0405L22.6345 31.491C22.6829 31.4903 22.7314 31.49 22.78 31.49C24.1709 31.49 25.4999 31.7549 26.7193 32.237L35.9474 19.5483C34.4185 17.6954 33.5 15.3199 33.5 12.73C33.5 6.80951 38.2995 2.01 44.22 2.01C50.1405 2.01 54.94 6.80951 54.94 12.73C54.94 16.7156 52.765 20.1932 49.5371 22.0405L52.1145 31.491C52.163 31.4903 52.2115 31.49 52.26 31.49C58.1805 31.49 62.98 36.2895 62.98 42.21C62.98 48.1305 58.1805 52.93 52.26 52.93C46.3395 52.93 41.54 48.1305 41.54 42.21C41.54 38.2244 43.7151 34.7469 46.9429 32.8995L44.3655 23.449C44.3171 23.4497 44.2686 23.45 44.22 23.45C42.8292 23.45 41.5002 23.1851 40.2807 22.7031L31.0526 35.3917C32.5816 37.2447 33.5 39.6201 33.5 42.21C33.5 48.1305 28.7005 52.93 22.78 52.93C16.8595 52.93 12.06 48.1305 12.06 42.21C12.06 38.2244 14.235 34.7469 17.4629 32.8995L14.8855 23.449Z" fill="url(#paint0_linear_3_2074)"/>
</g>
<defs>
<filter id="filter0_d_3_2074" x="0" y="0" width="67" height="58.9604" filterUnits="userSpaceOnUse" color-interpolation-filters="sRGB">
<feFlood flood-opacity="0" result="BackgroundImageFix"/>
<feColorMatrix in="SourceAlpha" type="matrix" values="0 0 0 0 0 0 0 0 0 0 0 0 0 0 0 0 0 0 127 0" result="hardAlpha"/>
<feOffset dy="1"/>
<feGaussianBlur stdDeviation="1"/>
<feComposite in2="hardAlpha" operator="out"/>
<feColorMatrix type="matrix" values="0 0 0 0 0.0627451 0 0 0 0 0.0941176 0 0 0 0 0.156863 0 0 0 0.04 0"/>
<feBlend mode="normal" in2="BackgroundImageFix" result="effect1_dropShadow_3_2074"/>
<feBlend mode="normal" in="SourceGraphic" in2="effect1_dropShadow_3_2074" result="shape"/>
</filter>
<linearGradient id="paint0_linear_3_2074" x1="33.5" y1="2.01" x2="33.5" y2="52.93" gradientUnits="userSpaceOnUse">
<stop stop-color="#FFA9BC"/>
<stop offset="1" stop-color="#EF083A"/>
</linearGradient>
</defs>
</svg>
