<svg width="48" height="47" viewBox="0 0 48 47" fill="none" xmlns="http://www.w3.org/2000/svg">
<path d="M25.0153 38.4808L36.6452 45.8649C38.1451 46.811 39.9911 45.4034 39.5527 43.6728L36.1837 30.4276C36.0926 30.0605 36.1071 29.6751 36.2255 29.3158C36.3439 28.9565 36.5614 28.638 36.8529 28.397L47.2829 19.6976C48.6443 18.5669 47.9521 16.2825 46.1753 16.1671L32.5609 15.2903C32.1894 15.2686 31.8323 15.1393 31.5331 14.918C31.234 14.6967 31.0058 14.3931 30.8764 14.0442L25.7999 1.26054C25.6655 0.891113 25.4207 0.571984 25.0987 0.346474C24.7767 0.120965 24.3931 0 24 0C23.6069 0 23.2233 0.120965 22.9013 0.346474C22.5793 0.571984 22.3345 0.891113 22.2001 1.26054L17.1236 14.0442C16.9942 14.3931 16.766 14.6967 16.4669 14.918C16.1677 15.1393 15.8106 15.2686 15.4391 15.2903L1.82473 16.1671C0.0479431 16.2825 -0.644313 18.5669 0.717124 19.6976L11.1471 28.397C11.4386 28.638 11.6561 28.9565 11.7745 29.3158C11.8929 29.6751 11.9074 30.0605 11.8163 30.4276L8.70114 42.7036C8.17041 44.7804 10.3856 46.4649 12.1624 45.3342L22.9847 38.4808C23.2882 38.2879 23.6404 38.1854 24 38.1854C24.3596 38.1854 24.7118 38.2879 25.0153 38.4808Z" fill="#FDD264"/>
</svg>
