<svg width="52" height="51" viewBox="0 0 52 51" fill="none" xmlns="http://www.w3.org/2000/svg">
<path d="M27.0155 40.49L38.6481 47.8757C40.1483 48.822 41.9947 47.4141 41.5562 45.6831L38.1865 32.4349C38.0953 32.0677 38.1098 31.6822 38.2282 31.3228C38.3467 30.9635 38.5642 30.6449 38.8558 30.4038L49.2881 21.7025C50.6499 20.5716 49.9575 18.2866 48.1803 18.1712L34.5628 17.2942C34.1913 17.2725 33.8341 17.1432 33.5348 16.9218C33.2356 16.7005 33.0074 16.3968 32.878 16.0478L27.8003 3.26127C27.6659 2.89176 27.421 2.57256 27.0989 2.347C26.7769 2.12144 26.3932 2.00045 26 2.00045C25.6068 2.00045 25.2231 2.12144 24.9011 2.347C24.579 2.57256 24.3341 2.89176 24.1997 3.26127L19.122 16.0478C18.9926 16.3968 18.7644 16.7005 18.4652 16.9218C18.1659 17.1432 17.8087 17.2725 17.4372 17.2942L3.81973 18.1712C2.04254 18.2866 1.35013 20.5716 2.71188 21.7025L13.1442 30.4038C13.4358 30.6449 13.6533 30.9635 13.7718 31.3228C13.8902 31.6822 13.9047 32.0677 13.8135 32.4349L10.6977 44.7137C10.1668 46.7909 12.3826 48.4758 14.1598 47.3448L24.9845 40.49C25.288 40.2969 25.6403 40.1944 26 40.1944C26.3597 40.1944 26.712 40.2969 27.0155 40.49Z" fill="#FDD264" stroke="#FDD264" stroke-width="2" stroke-linecap="round" stroke-linejoin="round"/>
</svg>
