<svg width="32" height="32" viewBox="0 0 32 32" fill="none" xmlns="http://www.w3.org/2000/svg">
<path fill-rule="evenodd" clip-rule="evenodd" d="M16.6272 0.410274L16.7972 0.771566C19.5448 6.61069 25.0205 10.6975 31.4001 11.6702C31.6643 11.7113 31.8835 11.9053 31.9658 12.171C32.0481 12.4367 31.9793 12.7282 31.7883 12.9234L31.4738 13.2449C27.0285 17.7909 25.0096 24.1797 26.0353 30.4546L26.1474 31.1399C26.1932 31.4149 26.0855 31.6933 25.8696 31.8576C25.6538 32.022 25.3673 32.0438 25.1309 31.9137C19.4478 28.78 12.5539 28.7808 6.87114 31.9152C6.63497 32.0457 6.34833 32.0243 6.13232 31.86C5.91631 31.6957 5.80861 31.4172 5.8547 31.1421L5.96684 30.456C6.99255 24.1803 4.97278 17.7908 0.526271 13.2449L0.211738 12.9234C0.0206996 12.7282 -0.0480693 12.4367 0.0342363 12.171C0.116542 11.9053 0.335714 11.7113 0.599948 11.6702C6.97963 10.6974 12.4558 6.61112 15.2045 0.77234L15.3749 0.410274C15.4911 0.159365 15.7344 0 16.001 0C16.2677 0 16.5109 0.159365 16.6272 0.410274Z" fill="#FDD264"/>
</svg>
