<svg width="50" height="48" viewBox="0 0 50 48" fill="none" xmlns="http://www.w3.org/2000/svg">
<path d="M23.2615 0.999476C24.0375 -0.33297 25.9625 -0.332968 26.7385 0.999478L33.6597 12.8824C33.944 13.3705 34.4204 13.7166 34.9725 13.8362L48.4126 16.7466C49.9196 17.0729 50.5145 18.9037 49.4871 20.0535L40.3245 30.308C39.9481 30.7292 39.7662 31.2892 39.8231 31.8512L41.2083 45.5329C41.3637 47.067 39.8063 48.1985 38.3953 47.5767L25.8113 42.0313C25.2944 41.8035 24.7056 41.8035 24.1887 42.0313L11.6047 47.5767C10.1936 48.1985 8.63635 47.067 8.79168 45.5329L10.1769 31.8512C10.2338 31.2892 10.0519 30.7292 9.67552 30.308L0.512927 20.0535C-0.514483 18.9037 0.080355 17.0729 1.58741 16.7466L15.0275 13.8362C15.5796 13.7166 16.056 13.3705 16.3403 12.8824L23.2615 0.999476Z" fill="#FDD264"/>
</svg>
