<svg width="251" height="54" viewBox="0 0 251 54" fill="none" xmlns="http://www.w3.org/2000/svg">
<path d="M43.4878 48.4288C42.2572 50.0019 40.7551 51.2004 38.9816 52.0244C37.2443 52.8484 35.3259 53.2604 33.2267 53.2604C30.4035 53.2604 27.8518 52.6237 25.5715 51.3502C23.2912 50.1142 20.6852 47.9044 17.7535 44.7208C14.315 44.2713 11.2384 43.1289 8.52383 41.2937C5.84543 39.4584 3.74614 37.0988 2.22597 34.2148C0.74199 31.2933 0 28.0722 0 24.5515C0 20.6937 0.886768 17.2291 2.6603 14.1578C4.47004 11.0491 6.94937 8.61455 10.0983 6.85419C13.2834 5.09382 16.8486 4.21364 20.7938 4.21364C24.739 4.21364 28.2861 5.09382 31.435 6.85419C34.584 8.61455 37.0633 11.0491 38.873 14.1578C40.6827 17.2291 41.5876 20.6937 41.5876 24.5515C41.5876 29.1209 40.3389 33.1286 37.8415 36.5744C35.3802 40.0202 32.1046 42.4173 28.0146 43.7657C28.9195 44.7395 29.7882 45.4324 30.6206 45.8444C31.4893 46.2939 32.4123 46.5186 33.3895 46.5186C35.7422 46.5186 37.8053 45.5448 39.5788 43.5971L43.4878 48.4288ZM8.90388 24.5515C8.90388 26.986 9.4106 29.1584 10.4241 31.0686C11.4737 32.9788 12.9034 34.4769 14.7131 35.5631C16.5228 36.6119 18.5497 37.1362 20.7938 37.1362C23.0379 37.1362 25.0648 36.6119 26.8745 35.5631C28.6842 34.4769 30.0958 32.9788 31.1093 31.0686C32.1589 29.1584 32.6837 26.986 32.6837 24.5515C32.6837 22.1169 32.1589 19.9446 31.1093 18.0344C30.0958 16.1242 28.6842 14.6447 26.8745 13.596C25.0648 12.5098 23.0379 11.9667 20.7938 11.9667C18.5497 11.9667 16.5228 12.5098 14.7131 13.596C12.9034 14.6447 11.4737 16.1242 10.4241 18.0344C9.4106 19.9446 8.90388 22.1169 8.90388 24.5515Z" fill="#909090"/>
<path d="M77.0267 13.9893V44.2151H68.9915V40.6195C67.8694 41.9304 66.5302 42.9417 64.9739 43.6533C63.4175 44.3275 61.7344 44.6646 59.9247 44.6646C56.0881 44.6646 53.0477 43.5222 50.8037 41.2375C48.5596 38.9528 47.4376 35.5631 47.4376 31.0686V13.9893H55.9071V29.7764C55.9071 34.6455 57.8797 37.08 61.8249 37.08C63.8518 37.08 65.4806 36.4059 66.7112 35.0575C67.9418 33.6717 68.5571 31.6304 68.5571 28.9337V13.9893H77.0267Z" fill="#909090"/>
<path d="M98.7719 44.6646C95.6953 44.6646 92.9264 44.0091 90.4652 42.6982C88.0402 41.3499 86.1399 39.4959 84.7645 37.1362C83.3891 34.7766 82.7014 32.0986 82.7014 29.1022C82.7014 26.1058 83.3891 23.4278 84.7645 21.0682C86.1399 18.7086 88.0402 16.8733 90.4652 15.5624C92.9264 14.214 95.6953 13.5398 98.7719 13.5398C101.848 13.5398 104.599 14.214 107.024 15.5624C109.449 16.8733 111.349 18.7086 112.725 21.0682C114.1 23.4278 114.788 26.1058 114.788 29.1022C114.788 32.0986 114.1 34.7766 112.725 37.1362C111.349 39.4959 109.449 41.3499 107.024 42.6982C104.599 44.0091 101.848 44.6646 98.7719 44.6646ZM98.7719 37.4733C100.944 37.4733 102.717 36.7242 104.092 35.226C105.504 33.6904 106.21 31.6491 106.21 29.1022C106.21 26.5553 105.504 24.5328 104.092 23.0346C102.717 21.4989 100.944 20.7311 98.7719 20.7311C96.6002 20.7311 94.8085 21.4989 93.397 23.0346C91.9854 24.5328 91.2796 26.5553 91.2796 29.1022C91.2796 31.6491 91.9854 33.6904 93.397 35.226C94.8085 36.7242 96.6002 37.4733 98.7719 37.4733Z" fill="#909090"/>
<path d="M139.288 42.7544C138.456 43.3911 137.424 43.878 136.194 44.2151C134.999 44.5148 133.733 44.6646 132.393 44.6646C128.919 44.6646 126.222 43.7469 124.304 41.9117C122.422 40.0764 121.481 37.3797 121.481 33.8215V21.4053H116.974V14.6635H121.481V7.30365H129.95V14.6635H137.225V21.4053H129.95V33.7091C129.95 34.9826 130.258 35.9751 130.873 36.6868C131.525 37.3609 132.43 37.698 133.588 37.698C134.927 37.698 136.067 37.3235 137.008 36.5744L139.288 42.7544Z" fill="#909090"/>
<path d="M144.043 13.9893H152.512V44.2151H144.043V13.9893ZM148.278 9.77565C146.721 9.77565 145.454 9.30746 144.477 8.3711C143.5 7.43473 143.011 6.27364 143.011 4.88782C143.011 3.502 143.5 2.34091 144.477 1.40455C145.454 0.468183 146.721 0 148.278 0C149.834 0 151.101 0.449456 152.078 1.34837C153.055 2.24728 153.544 3.37091 153.544 4.71928C153.544 6.18001 153.055 7.39728 152.078 8.3711C151.101 9.30746 149.834 9.77565 148.278 9.77565Z" fill="#909090"/>
<path d="M188.985 29.2146C188.985 29.3269 188.93 30.1135 188.822 31.5742H166.725C167.123 33.4469 168.064 34.9264 169.548 36.0126C171.032 37.0988 172.878 37.6418 175.086 37.6418C176.606 37.6418 177.945 37.4171 179.104 36.9677C180.298 36.4808 181.402 35.7317 182.415 34.7204L186.922 39.7768C184.171 43.0353 180.153 44.6646 174.869 44.6646C171.575 44.6646 168.661 44.0091 166.128 42.6982C163.594 41.3499 161.64 39.4959 160.264 37.1362C158.889 34.7766 158.201 32.0986 158.201 29.1022C158.201 26.1433 158.871 23.484 160.21 21.1244C161.585 18.7273 163.449 16.8733 165.802 15.5624C168.191 14.214 170.851 13.5398 173.783 13.5398C176.642 13.5398 179.23 14.1766 181.547 15.45C183.863 16.7235 185.673 18.5587 186.976 20.9558C188.315 23.3155 188.985 26.0684 188.985 29.2146ZM173.837 20.1693C171.919 20.1693 170.308 20.7311 169.005 21.8547C167.702 22.9784 166.906 24.514 166.616 26.4617H181.004C180.714 24.5515 179.918 23.0346 178.615 21.9109C177.312 20.7498 175.719 20.1693 173.837 20.1693Z" fill="#909090"/>
<path d="M212.377 13.5398C215.996 13.5398 218.91 14.6635 221.118 16.9107C223.362 19.158 224.484 22.4915 224.484 26.9111V44.2151H216.014V28.2595C216.014 25.8624 215.508 24.0833 214.494 22.9222C213.481 21.7237 212.015 21.1244 210.097 21.1244C207.961 21.1244 206.26 21.8173 204.993 23.2031C203.726 24.5515 203.093 26.574 203.093 29.2708V44.2151H194.623V13.9893H202.713V17.5287C203.835 16.2553 205.228 15.2815 206.893 14.6073C208.558 13.8956 210.386 13.5398 212.377 13.5398Z" fill="#909090"/>
<path d="M251 42.7544C250.168 43.3911 249.136 43.878 247.906 44.2151C246.711 44.5148 245.445 44.6646 244.105 44.6646C240.631 44.6646 237.934 43.7469 236.016 41.9117C234.134 40.0764 233.193 37.3797 233.193 33.8215V21.4053H228.686V14.6635H233.193V7.30365H241.662V14.6635H248.937V21.4053H241.662V33.7091C241.662 34.9826 241.97 35.9751 242.585 36.6868C243.237 37.3609 244.142 37.698 245.3 37.698C246.639 37.698 247.779 37.3235 248.72 36.5744L251 42.7544Z" fill="#909090"/>
</svg>
