<svg width="170" height="29" viewBox="0 0 170 29" fill="none" xmlns="http://www.w3.org/2000/svg">
<path d="M22.7015 21.0955C21.9423 23.6358 20.6136 25.5346 18.7155 26.7916C16.8173 28.0225 14.6029 28.638 12.072 28.638C9.59183 28.638 7.44063 28.1011 5.61844 27.0273C3.82155 25.9536 2.42959 24.4215 1.44257 22.4311C0.480857 20.4407 0 18.0575 0 15.2814C0 12.5054 0.493511 10.1222 1.48053 8.13177C2.46756 6.14139 3.85951 4.60931 5.6564 3.53555C7.45329 2.46179 9.56653 1.92491 11.9961 1.92491C14.5523 1.92491 16.7414 2.48798 18.5636 3.61412C20.4111 4.71407 21.6765 6.39018 22.3599 8.64246L17.6146 10.7245C17.1843 9.15315 16.5263 8.04011 15.6405 7.38538C14.7547 6.70446 13.6159 6.364 12.2239 6.364C10.1486 6.364 8.49093 7.13658 7.25082 8.68175C6.03602 10.2007 5.42862 12.4006 5.42862 15.2814C5.42862 18.1361 6.01071 20.336 7.1749 21.8811C8.33908 23.4263 10.0221 24.1989 12.2239 24.1989C13.5905 24.1989 14.7674 23.8192 15.7544 23.0597C16.7667 22.3002 17.4754 21.1478 17.8803 19.6027L22.7015 21.0955Z" fill="#909090"/>
<path d="M29.2545 5.77474C27.1033 5.77474 26.0277 4.81883 26.0277 2.90701C26.0277 0.969003 27.1033 0 29.2545 0C31.4057 0 32.4813 0.969003 32.4813 2.90701C32.4813 4.81883 31.4057 5.77474 29.2545 5.77474ZM31.8359 8.60318V28.2451H26.6351V8.60318H31.8359Z" fill="#909090"/>
<path d="M37.3491 28.2451V8.60318H41.8666L42.2083 12.453C42.6891 11.1173 43.4104 10.0829 44.3721 9.34957C45.3591 8.59008 46.5992 8.21034 48.0924 8.21034C48.9782 8.21034 49.6615 8.35438 50.1424 8.64246L49.535 13.1601C49.2819 13.0815 48.9656 13.0161 48.5859 12.9637C48.2316 12.8851 47.7634 12.8458 47.1813 12.8458C46.3968 12.8458 45.6502 13.0423 44.9416 13.4351C44.2582 13.8018 43.6888 14.3779 43.2333 15.1636C42.7777 15.9231 42.5499 16.8921 42.5499 18.0706V28.2451H37.3491Z" fill="#909090"/>
<path d="M61.6112 8.21034C64.142 8.21034 66.1034 8.77341 67.4954 9.89955C68.9126 11.0257 69.849 12.3875 70.3046 13.9851L65.4454 15.7921C64.9392 13.4089 63.6865 12.2173 61.6871 12.2173C60.2446 12.2173 59.1183 12.7411 58.3085 13.7887C57.5239 14.8362 57.1316 16.3945 57.1316 18.4634C57.1316 20.5586 57.5366 22.1168 58.3464 23.1382C59.1816 24.1334 60.3078 24.631 61.7251 24.631C63.9269 24.631 65.2429 23.4656 65.6732 21.1347L70.3805 22.7061C69.9503 24.4608 68.9886 25.8881 67.4954 26.9881C66.0275 28.088 64.1167 28.638 61.7631 28.638C59.789 28.638 58.0554 28.232 56.5622 27.4202C55.0943 26.6083 53.9555 25.4429 53.1456 23.9239C52.3357 22.4049 51.9308 20.5717 51.9308 18.4242C51.9308 16.2766 52.3357 14.4434 53.1456 12.9244C53.9808 11.4054 55.1196 10.24 56.5622 9.42814C58.0301 8.61627 59.7131 8.21034 61.6112 8.21034Z" fill="#909090"/>
<path d="M83.0772 8.21034C84.9753 8.21034 86.6583 8.61627 88.1262 9.42814C89.594 10.24 90.7329 11.4054 91.5428 12.9244C92.378 14.4434 92.7955 16.2766 92.7955 18.4242C92.7955 20.5717 92.378 22.4049 91.5428 23.9239C90.7329 25.4429 89.594 26.6083 88.1262 27.4202C86.6583 28.232 84.9753 28.638 83.0772 28.638C81.1537 28.638 79.4581 28.232 77.9902 27.4202C76.5476 26.6083 75.4088 25.4429 74.5736 23.9239C73.7637 22.4049 73.3588 20.5717 73.3588 18.4242C73.3588 16.2766 73.7637 14.4434 74.5736 12.9244C75.4088 11.4054 76.5476 10.24 77.9902 9.42814C79.4581 8.61627 81.1537 8.21034 83.0772 8.21034ZM83.0772 12.2173C81.6599 12.2173 80.5463 12.7411 79.7365 13.7887C78.9519 14.81 78.5596 16.3552 78.5596 18.4242C78.5596 20.4931 78.9519 22.0514 79.7365 23.0989C80.5463 24.1203 81.6599 24.631 83.0772 24.631C84.4691 24.631 85.5574 24.1203 86.3419 23.0989C87.1518 22.0514 87.5567 20.4931 87.5567 18.4242C87.5567 16.3552 87.1518 14.81 86.3419 13.7887C85.5574 12.7411 84.4691 12.2173 83.0772 12.2173Z" fill="#909090"/>
<path d="M105.803 8.21034C107.701 8.21034 109.384 8.61627 110.852 9.42814C112.32 10.24 113.458 11.4054 114.268 12.9244C115.103 14.4434 115.521 16.2766 115.521 18.4242C115.521 20.5717 115.103 22.4049 114.268 23.9239C113.458 25.4429 112.32 26.6083 110.852 27.4202C109.384 28.232 107.701 28.638 105.803 28.638C103.879 28.638 102.184 28.232 100.716 27.4202C99.2732 26.6083 98.1343 25.4429 97.2991 23.9239C96.4893 22.4049 96.0843 20.5717 96.0843 18.4242C96.0843 16.2766 96.4893 14.4434 97.2991 12.9244C98.1343 11.4054 99.2732 10.24 100.716 9.42814C102.184 8.61627 103.879 8.21034 105.803 8.21034ZM105.803 12.2173C104.385 12.2173 103.272 12.7411 102.462 13.7887C101.677 14.81 101.285 16.3552 101.285 18.4242C101.285 20.4931 101.677 22.0514 102.462 23.0989C103.272 24.1203 104.385 24.631 105.803 24.631C107.195 24.631 108.283 24.1203 109.067 23.0989C109.877 22.0514 110.282 20.4931 110.282 18.4242C110.282 16.3552 109.877 14.81 109.067 13.7887C108.283 12.7411 107.195 12.2173 105.803 12.2173Z" fill="#909090"/>
<path d="M124.998 0V22.1954C124.998 23.112 125.15 23.7537 125.453 24.1203C125.757 24.487 126.263 24.6703 126.972 24.6703C127.402 24.6703 127.756 24.6441 128.035 24.5917C128.313 24.5394 128.667 24.4346 129.098 24.2775L128.642 27.813C128.212 28.0749 127.668 28.2713 127.01 28.4023C126.377 28.5594 125.744 28.638 125.112 28.638C123.264 28.638 121.91 28.1797 121.05 27.263C120.214 26.3202 119.797 24.8274 119.797 22.7847V0H124.998Z" fill="#909090"/>
<path d="M140.803 28.638C137.816 28.638 135.425 27.7475 133.628 25.9667C131.831 24.1596 130.933 21.6454 130.933 18.4242C130.933 16.2766 131.338 14.4434 132.147 12.9244C132.957 11.4054 134.084 10.24 135.526 9.42814C136.994 8.61627 138.664 8.21034 140.537 8.21034C142.461 8.21034 144.093 8.61627 145.434 9.42814C146.776 10.2138 147.801 11.3007 148.509 12.6887C149.218 14.0505 149.572 15.6088 149.572 17.3635C149.572 17.8873 149.56 18.3849 149.534 18.8563C149.509 19.3277 149.471 19.7467 149.42 20.1134H136.02C136.222 21.6323 136.728 22.7716 137.538 23.5311C138.373 24.2644 139.449 24.631 140.765 24.631C141.878 24.631 142.777 24.4084 143.46 23.9632C144.144 23.518 144.675 22.9025 145.055 22.1168L149.193 23.7668C148.585 25.3119 147.522 26.5166 146.004 27.3809C144.485 28.219 142.752 28.638 140.803 28.638ZM140.499 12.178C138.044 12.178 136.564 13.5791 136.058 16.3814H144.599C144.447 15.0196 144.017 13.9851 143.308 13.278C142.625 12.5447 141.689 12.178 140.499 12.178Z" fill="#909090"/>
<path d="M161.572 28.638C159.649 28.638 157.89 28.2844 156.295 27.5773C154.726 26.8702 153.448 25.875 152.461 24.5917L155.46 21.449C156.068 22.3918 156.877 23.1644 157.89 23.7668C158.902 24.3691 160.104 24.6703 161.496 24.6703C162.483 24.6703 163.268 24.5263 163.85 24.2382C164.457 23.9239 164.761 23.4394 164.761 22.7847C164.761 22.3656 164.622 22.0121 164.343 21.724C164.065 21.4097 163.508 21.1609 162.673 20.9776L159.332 20.2705C157.131 19.7991 155.561 19.092 154.625 18.1492C153.714 17.1802 153.258 15.9362 153.258 14.4172C153.258 13.3434 153.562 12.3352 154.169 11.3923C154.802 10.4495 155.739 9.69003 156.979 9.11387C158.219 8.51152 159.763 8.21034 161.61 8.21034C165.457 8.21034 168.216 9.42814 169.886 11.8637L166.773 15.0065C166.216 14.0898 165.482 13.3958 164.571 12.9244C163.685 12.4268 162.749 12.178 161.762 12.178C159.535 12.178 158.421 12.8197 158.421 14.1029C158.421 14.522 158.598 14.8886 158.953 15.2029C159.307 15.491 159.952 15.7398 160.889 15.9493L164.761 16.7742C166.634 17.1671 167.975 17.8349 168.785 18.7777C169.595 19.6943 170 20.8074 170 22.1168C170 24.0025 169.266 25.5607 167.798 26.7916C166.355 28.0225 164.28 28.638 161.572 28.638Z" fill="#909090"/>
</svg>
