<svg width="117" height="37" viewBox="0 0 117 37" fill="none" xmlns="http://www.w3.org/2000/svg">
<path d="M4.27268 23.387H13.0804V26.9551H0V0H4.27268V23.387Z" fill="#909090"/>
<path d="M15.2293 16.1731C15.2293 14.027 15.6541 12.1266 16.5036 10.4718C17.3782 8.81698 18.5525 7.5371 20.0267 6.63213C21.5259 5.70131 23.175 5.23589 24.9741 5.23589C26.5982 5.23589 28.0099 5.57202 29.2093 6.24429C30.4336 6.89069 31.4081 7.70516 32.1327 8.6877V5.58495H36.4428V26.9551H32.1327V23.7748C31.4081 24.7832 30.4211 25.6235 29.1718 26.2958C27.9225 26.9681 26.4982 27.3042 24.8991 27.3042C23.1251 27.3042 21.5009 26.8388 20.0267 25.908C18.5525 24.9513 17.3782 23.6326 16.5036 21.952C15.6541 20.2454 15.2293 18.3192 15.2293 16.1731ZM32.1327 16.2507C32.1327 14.7768 31.8328 13.497 31.2332 12.411C30.6585 11.325 29.8964 10.4976 28.9469 9.9288C27.9974 9.35997 26.973 9.07555 25.8736 9.07555C24.7742 9.07555 23.7497 9.35997 22.8002 9.9288C21.8507 10.4718 21.0762 11.2863 20.4765 12.3722C19.9018 13.4323 19.6145 14.6993 19.6145 16.1731C19.6145 17.6469 19.9018 18.9397 20.4765 20.0515C21.0762 21.1633 21.8507 22.0166 22.8002 22.6113C23.7747 23.1801 24.7992 23.4646 25.8736 23.4646C26.973 23.4646 27.9974 23.1801 28.9469 22.6113C29.8964 22.0425 30.6585 21.2151 31.2332 20.1291C31.8328 19.0173 32.1327 17.7245 32.1327 16.2507Z" fill="#909090"/>
<path d="M60.6448 5.58495L47.9766 37.0003H43.554L47.7518 26.6061L39.6187 5.58495H44.3786L50.1879 21.8744L56.2222 5.58495H60.6448Z" fill="#909090"/>
<path d="M82.7964 15.7465C82.7964 16.548 82.7465 17.272 82.6465 17.9184H66.8676C66.9925 19.6249 67.6047 20.9953 68.7041 22.0295C69.8035 23.0638 71.1527 23.5809 72.7519 23.5809C75.0506 23.5809 76.6747 22.5854 77.6242 20.5945H82.2342C81.6096 22.5596 80.4727 24.1756 78.8236 25.4426C77.1995 26.6837 75.1756 27.3042 72.7519 27.3042C70.7779 27.3042 69.0039 26.8517 67.4298 25.9468C65.8806 25.0159 64.6563 23.7231 63.7567 22.0683C62.8822 20.3877 62.445 18.4484 62.445 16.2507C62.445 14.0529 62.8697 12.1266 63.7193 10.4718C64.5938 8.79113 65.8056 7.49832 67.3548 6.59335C68.9289 5.68838 70.728 5.23589 72.7519 5.23589C74.7008 5.23589 76.4374 5.67545 77.9615 6.55456C79.4857 7.43367 80.6726 8.67478 81.5221 10.2779C82.3717 11.8551 82.7964 13.678 82.7964 15.7465ZM78.3363 14.3502C78.3114 12.7213 77.7492 11.4155 76.6497 10.433C75.5503 9.45046 74.1886 8.95919 72.5645 8.95919C71.0903 8.95919 69.8285 9.45046 68.779 10.433C67.7296 11.3897 67.1049 12.6954 66.905 14.3502H78.3363Z" fill="#909090"/>
<path d="M91.2739 8.6877C91.8985 7.60174 92.7231 6.76141 93.7475 6.16672C94.7969 5.54617 96.0338 5.23589 97.458 5.23589V9.81245H96.3711C94.697 9.81245 93.4227 10.252 92.5482 11.1311C91.6986 12.0102 91.2739 13.5357 91.2739 15.7077V26.9551H87.0012V5.58495H91.2739V8.6877Z" fill="#909090"/>
<path d="M108.881 27.3042C107.257 27.3042 105.796 27.0069 104.496 26.4122C103.222 25.7916 102.21 24.9642 101.46 23.93C100.711 22.8699 100.311 21.6934 100.261 20.4006H104.684C104.759 21.3056 105.171 22.0683 105.921 22.6889C106.695 23.2836 107.657 23.5809 108.806 23.5809C110.006 23.5809 110.93 23.3482 111.58 22.8828C112.255 22.3915 112.592 21.771 112.592 21.0211C112.592 20.2196 112.217 19.6249 111.468 19.2371C110.743 18.8492 109.581 18.4226 107.982 17.9572C106.433 17.5176 105.171 17.091 104.196 16.6773C103.222 16.2636 102.372 15.6301 101.648 14.7769C100.948 13.9236 100.598 12.7988 100.598 11.4026C100.598 10.2649 100.923 9.23068 101.573 8.29986C102.223 7.34318 103.147 6.59335 104.346 6.05036C105.571 5.50738 106.97 5.23589 108.544 5.23589C110.893 5.23589 112.779 5.85644 114.204 7.09754C115.653 8.31279 116.427 9.98051 116.527 12.1007H112.255C112.18 11.144 111.805 10.3813 111.13 9.81245C110.456 9.24361 109.544 8.95919 108.394 8.95919C107.27 8.95919 106.408 9.17897 105.808 9.61853C105.208 10.0581 104.909 10.6398 104.909 11.3638C104.909 11.9327 105.108 12.411 105.508 12.7988C105.908 13.1867 106.395 13.497 106.97 13.7297C107.545 13.9365 108.394 14.208 109.519 14.5441C111.018 14.9578 112.242 15.3845 113.192 15.824C114.166 16.2377 115.003 16.8583 115.703 17.6857C116.402 18.5131 116.765 19.612 116.79 20.9824C116.79 22.1976 116.465 23.2836 115.815 24.2402C115.165 25.1969 114.241 25.9468 113.042 26.4897C111.867 27.0327 110.481 27.3042 108.881 27.3042Z" fill="#909090"/>
</svg>
