<svg width="160" height="41" viewBox="0 0 160 41" fill="none" xmlns="http://www.w3.org/2000/svg">
<path fill-rule="evenodd" clip-rule="evenodd" d="M97.4652 11.3935C94.917 11.3935 92.8998 11.9259 90.8825 13.0972C90.8825 7.24074 90.8825 1.81019 91.0949 0L78.6728 2.23611V3.30093L79.9469 3.51389C81.6456 3.83333 82.1765 4.79167 82.495 7.02778C82.8135 11.5 82.7073 35.0324 82.495 38.9722C85.7863 39.7176 89.29 40.25 92.7936 40.25C102.561 40.25 108.401 34.1806 108.401 24.5972C108.507 16.9306 103.729 11.3935 97.4652 11.3935ZM93.2183 38.1204C92.4751 38.1204 91.5196 38.1204 90.9887 37.9074C90.7764 35.3519 90.6702 24.4907 90.7764 14.9074C91.8381 14.588 92.5813 14.375 93.5368 14.375C97.5713 14.375 99.8009 19.1667 99.8009 25.0232C99.8009 32.4769 97.0405 38.1204 93.2183 38.1204Z" fill="#909090"/>
<path fill-rule="evenodd" clip-rule="evenodd" d="M32.3822 0.745186H0V2.44889L1.80491 2.66185C4.24685 2.9813 5.09622 4.47204 5.5209 7.98593C6.05176 14.5878 5.83942 26.6202 5.5209 32.3702C5.20239 35.8841 4.24685 37.4813 1.80491 37.6943L0 38.0137V39.5044H20.8096V38.0137L18.58 37.6943C16.138 37.4813 15.2887 35.8841 14.864 32.3702C14.6516 29.9211 14.5455 26.0878 14.5455 21.2961L19.0046 21.5091C21.7651 21.5091 23.0392 23.7452 23.57 26.8331H25.2687V13.6294H23.57C23.0392 16.7174 21.7651 18.9535 19.0046 18.9535L14.5455 19.1665C14.5455 12.8841 14.7578 7.02759 14.864 3.51371H21.3404C26.3305 3.51371 28.8786 6.60167 30.6835 12.1387L32.4884 11.6063L32.3822 0.745186Z" fill="#909090"/>
<path fill-rule="evenodd" clip-rule="evenodd" d="M42.787 11.0741C52.0239 11.0741 56.5893 17.3566 56.5893 25.6621C56.5893 33.5417 51.493 40.2501 42.2561 40.2501C33.0193 40.2501 28.4539 33.9677 28.4539 25.6621C28.4539 17.676 33.6563 11.0741 42.787 11.0741ZM42.2561 12.8843C38.2216 12.8843 37.1599 18.4214 37.1599 25.5556C37.1599 32.5834 38.9648 38.2269 42.6808 38.2269C46.9277 38.2269 47.9894 32.6899 47.9894 25.5556C47.9894 18.6343 46.1845 12.8843 42.2561 12.8843Z" fill="#909090"/>
<path fill-rule="evenodd" clip-rule="evenodd" d="M110.843 25.7687C110.843 18.2085 115.62 10.9677 124.964 10.9677C132.714 10.9677 136.324 16.7177 136.324 24.2779H119.23C119.018 31.0927 122.309 36.0974 128.998 36.0974C131.971 36.0974 133.457 35.352 135.262 34.0742L136.005 35.0326C134.2 37.5881 130.166 40.1437 124.964 40.1437C116.788 40.2502 110.843 34.2872 110.843 25.7687ZM119.336 22.3613L127.936 22.1483C127.936 18.4214 127.405 12.8844 124.22 12.8844C121.141 12.8844 119.549 18.102 119.336 22.3613Z" fill="#909090"/>
<path fill-rule="evenodd" clip-rule="evenodd" d="M158.301 12.5649C156.072 11.6066 153.205 11.0741 149.808 11.0741C143.013 11.0741 138.766 15.1204 138.766 19.9121C138.766 24.7038 141.845 26.7269 146.304 28.2177C150.869 29.9214 152.143 31.1991 152.143 33.3288C152.143 35.5649 150.445 37.588 147.578 37.588C144.074 37.588 141.526 35.5649 139.509 30.0279L138.235 30.3473L138.447 38.4399C140.677 39.3982 144.711 40.1436 148.215 40.1436C155.435 40.1436 160 36.4167 160 30.7732C160 26.9399 157.983 24.7038 153.205 22.8936C148.109 20.8704 146.198 19.5927 146.198 17.1436C146.198 14.6945 147.896 13.0973 150.02 13.0973C153.311 13.0973 155.541 15.1204 157.24 20.1251L158.514 19.8056L158.301 12.5649Z" fill="#909090"/>
<path fill-rule="evenodd" clip-rule="evenodd" d="M80.4778 11.8196C77.3988 10.0095 71.8779 10.8613 68.9051 17.5696L69.1174 11.0743L56.8016 13.5233V14.5882L58.0757 14.8011C59.7744 15.0141 60.5176 15.8659 60.6238 18.315C60.9423 22.7872 60.8361 30.4539 60.6238 34.3937C60.4114 36.6298 59.6682 37.6946 58.0757 37.9076L56.8016 38.1206V39.6113H73.8952V38.1206L71.6656 37.9076C69.8606 37.6946 69.2236 36.6298 69.1174 34.3937C68.7989 30.8798 68.7989 23.852 68.9051 19.4863C69.8607 18.2085 73.8952 17.0372 77.505 19.4863L80.4778 11.8196Z" fill="#909090"/>
</svg>
