<svg width="196" height="44" viewBox="0 0 196 44" fill="none" xmlns="http://www.w3.org/2000/svg">
<path d="M12.006 35.2012C9.657 35.2012 7.3805 34.8561 5.1765 34.1658C3.0015 33.4756 1.276 32.5603 0 31.42L1.9575 26.8735C3.2045 27.8939 4.727 28.7341 6.525 29.3943C8.352 30.0245 10.179 30.3396 12.006 30.3396C14.268 30.3396 15.95 29.9645 17.052 29.2143C18.183 28.464 18.7485 27.4737 18.7485 26.2433C18.7485 25.343 18.4295 24.6078 17.7915 24.0376C17.1825 23.4374 16.3995 22.9723 15.4425 22.6422C14.4855 22.3121 13.1805 21.937 11.5275 21.5168C9.2075 20.9466 7.3225 20.3765 5.8725 19.8063C4.4515 19.2361 3.219 18.3508 2.175 17.1504C1.16 15.92 0.6525 14.2695 0.6525 12.1989C0.6525 10.4583 1.102 8.88282 2.001 7.47237C2.929 6.03191 4.3065 4.89155 6.1335 4.05128C7.9895 3.21102 10.2515 2.79088 12.9195 2.79088C14.7755 2.79088 16.6025 3.03096 18.4005 3.51111C20.1985 3.99127 21.75 4.68148 23.055 5.58177L21.2715 10.1282C19.9375 9.31795 18.5455 8.70276 17.0955 8.28263C15.6455 7.86249 14.239 7.65242 12.876 7.65242C10.643 7.65242 8.9755 8.04255 7.8735 8.8228C6.8005 9.60305 6.264 10.6384 6.264 11.9288C6.264 12.8291 6.5685 13.5643 7.1775 14.1345C7.8155 14.7047 8.613 15.1548 9.57 15.4849C10.527 15.815 11.832 16.1901 13.485 16.6103C15.747 17.1504 17.603 17.7206 19.053 18.3208C20.503 18.891 21.7355 19.7763 22.7505 20.9767C23.7945 22.177 24.3165 23.7975 24.3165 25.8382C24.3165 27.5787 23.8525 29.1542 22.9245 30.5647C22.0255 31.9751 20.648 33.1005 18.792 33.9408C16.936 34.781 14.674 35.2012 12.006 35.2012Z" fill="#909090"/>
<path d="M29.4019 10.7134H34.8394V34.751H29.4019V10.7134ZM32.1424 6.75214C31.1564 6.75214 30.3299 6.43704 29.6629 5.80684C28.9959 5.14663 28.6624 4.33638 28.6624 3.37607C28.6624 2.41577 28.9959 1.62051 29.6629 0.990312C30.3299 0.330104 31.1564 0 32.1424 0C33.1284 0 33.9549 0.315099 34.6219 0.945298C35.2889 1.54549 35.6224 2.31073 35.6224 3.24103C35.6224 4.23134 35.2889 5.07161 34.6219 5.76183C33.9839 6.42204 33.1574 6.75214 32.1424 6.75214Z" fill="#909090"/>
<path d="M49.1536 35.0661C47.2686 35.0661 45.4271 34.811 43.6291 34.3009C41.8311 33.7907 40.3956 33.1455 39.3226 32.3653L41.4106 28.0889C42.4546 28.8091 43.7016 29.3943 45.1516 29.8445C46.6306 30.2646 48.0806 30.4747 49.5016 30.4747C52.7496 30.4747 54.3736 29.5894 54.3736 27.8188C54.3736 26.9786 53.9531 26.3934 53.1121 26.0633C52.3001 25.7332 50.9806 25.4181 49.1536 25.118C47.2396 24.8179 45.6736 24.4728 44.4556 24.0826C43.2666 23.6925 42.2226 23.0173 41.3236 22.057C40.4536 21.0667 40.0186 19.7012 40.0186 17.9607C40.0186 15.68 40.9321 13.8644 42.7591 12.514C44.6151 11.1335 47.1091 10.4433 50.2411 10.4433C51.8361 10.4433 53.4311 10.6384 55.0261 11.0285C56.6211 11.3886 57.9261 11.8838 58.9411 12.514L56.8531 16.7903C54.8811 15.5899 52.6626 14.9898 50.1976 14.9898C48.6026 14.9898 47.3846 15.2448 46.5436 15.755C45.7316 16.2351 45.3256 16.8804 45.3256 17.6906C45.3256 18.5909 45.7606 19.2361 46.6306 19.6262C47.5296 19.9863 48.9071 20.3314 50.7631 20.6616C52.6191 20.9616 54.1416 21.3068 55.3306 21.6969C56.5196 22.087 57.5346 22.7472 58.3756 23.6775C59.2456 24.6078 59.6806 25.9282 59.6806 27.6388C59.6806 29.8895 58.7381 31.6901 56.8531 33.0405C54.9681 34.3909 52.4016 35.0661 49.1536 35.0661Z" fill="#909090"/>
<path d="M85.6885 10.7134L74.8135 36.6866C73.7985 39.2975 72.566 41.128 71.116 42.1784C69.666 43.2587 67.9115 43.7989 65.8525 43.7989C64.6925 43.7989 63.547 43.6038 62.416 43.2137C61.285 42.8236 60.357 42.2834 59.632 41.5932L61.807 37.4519C62.329 37.962 62.938 38.3672 63.634 38.6673C64.359 38.9674 65.084 39.1174 65.809 39.1174C66.766 39.1174 67.549 38.8623 68.158 38.3522C68.796 37.842 69.376 36.9867 69.898 35.7864L70.2895 34.8411L60.154 10.7134H65.809L73.117 28.494L80.4685 10.7134H85.6885Z" fill="#909090"/>
<path d="M101.963 10.4433C104.225 10.4433 106.24 10.9535 108.009 11.9738C109.807 12.9941 111.214 14.4346 112.229 16.2952C113.244 18.1558 113.751 20.3014 113.751 22.7322C113.751 25.163 113.244 27.3237 112.229 29.2143C111.214 31.0749 109.807 32.5153 108.009 33.5356C106.24 34.556 104.225 35.0661 101.963 35.0661C98.831 35.0661 96.3515 33.9858 94.5245 31.8251V43.4838H89.087V10.7134H94.2635V13.8644C95.1625 12.724 96.2645 11.8688 97.5695 11.2986C98.9035 10.7284 100.368 10.4433 101.963 10.4433ZM101.354 30.2496C103.355 30.2496 104.993 29.5594 106.269 28.1789C107.574 26.7985 108.227 24.9829 108.227 22.7322C108.227 20.4815 107.574 18.6659 106.269 17.2855C104.993 15.905 103.355 15.2148 101.354 15.2148C100.049 15.2148 98.8745 15.5299 97.8305 16.1601C96.7865 16.7603 95.96 17.6306 95.351 18.771C94.742 19.9113 94.4375 21.2317 94.4375 22.7322C94.4375 24.2327 94.742 25.5531 95.351 26.6935C95.96 27.8338 96.7865 28.7191 97.8305 29.3493C98.8745 29.9495 100.049 30.2496 101.354 30.2496Z" fill="#909090"/>
<path d="M132.089 10.4433C135.018 10.4433 137.367 11.3286 139.136 13.0992C140.905 14.8697 141.789 17.4955 141.789 20.9767V34.751H136.352V21.6969C136.352 19.5962 135.873 18.0207 134.916 16.9704C133.959 15.89 132.596 15.3499 130.827 15.3499C128.826 15.3499 127.246 15.9801 126.086 17.2405C124.926 18.4709 124.346 20.2564 124.346 22.5972V34.751H118.908V1.35043H124.346V13.5043C125.245 12.514 126.347 11.7637 127.652 11.2536C128.986 10.7134 130.465 10.4433 132.089 10.4433Z" fill="#909090"/>
<path d="M171.177 10.7134V34.751H166V31.6901C165.13 32.7704 164.043 33.6107 162.738 34.2109C161.433 34.781 160.026 35.0661 158.518 35.0661C155.415 35.0661 152.965 34.1808 151.167 32.4103C149.398 30.6097 148.513 27.9539 148.513 24.4428V10.7134H153.951V23.6775C153.951 25.8382 154.415 27.4587 155.343 28.5391C156.3 29.5894 157.648 30.1146 159.388 30.1146C161.331 30.1146 162.868 29.4994 163.999 28.269C165.159 27.0086 165.739 25.208 165.739 22.8673V10.7134H171.177Z" fill="#909090"/>
<path d="M185.473 35.0661C183.588 35.0661 181.747 34.811 179.949 34.3009C178.151 33.7907 176.715 33.1455 175.642 32.3653L177.73 28.0889C178.774 28.8091 180.021 29.3943 181.471 29.8445C182.95 30.2646 184.4 30.4747 185.821 30.4747C189.069 30.4747 190.693 29.5894 190.693 27.8188C190.693 26.9786 190.273 26.3934 189.432 26.0633C188.62 25.7332 187.3 25.4181 185.473 25.118C183.559 24.8179 181.993 24.4728 180.775 24.0826C179.586 23.6925 178.542 23.0173 177.643 22.057C176.773 21.0667 176.338 19.7012 176.338 17.9607C176.338 15.68 177.252 13.8644 179.079 12.514C180.935 11.1335 183.429 10.4433 186.561 10.4433C188.156 10.4433 189.751 10.6384 191.346 11.0285C192.941 11.3886 194.246 11.8838 195.261 12.514L193.173 16.7903C191.201 15.5899 188.982 14.9898 186.517 14.9898C184.922 14.9898 183.704 15.2448 182.863 15.755C182.051 16.2351 181.645 16.8804 181.645 17.6906C181.645 18.5909 182.08 19.2361 182.95 19.6262C183.849 19.9863 185.227 20.3314 187.083 20.6616C188.939 20.9616 190.461 21.3068 191.65 21.6969C192.839 22.087 193.854 22.7472 194.695 23.6775C195.565 24.6078 196 25.9282 196 27.6388C196 29.8895 195.058 31.6901 193.173 33.0405C191.288 34.3909 188.721 35.0661 185.473 35.0661Z" fill="#909090"/>
</svg>
