<svg width="192" height="41" viewBox="0 0 192 41" fill="none" xmlns="http://www.w3.org/2000/svg">
<path d="M22.107 1.67457V29.5043H16.7616V17.6627H5.34538V29.5043H0V1.67457H5.34538V13.1175H16.7616V1.67457H22.107Z" fill="#909090"/>
<path d="M36.7608 29.8631C34.7245 29.8631 32.8918 29.398 31.2627 28.4677C29.6336 27.5108 28.3482 26.1685 27.4064 24.4407C26.49 22.713 26.0319 20.7195 26.0319 18.4601C26.0319 16.2008 26.5028 14.2073 27.4446 12.4795C28.4118 10.7518 29.7227 9.42277 31.3772 8.49245C33.0318 7.53556 34.8772 7.05711 36.9135 7.05711C38.9499 7.05711 40.7953 7.53556 42.4498 8.49245C44.1043 9.42277 45.4025 10.7518 46.3443 12.4795C47.3116 14.2073 47.7952 16.2008 47.7952 18.4601C47.7952 20.7195 47.2988 22.713 46.3061 24.4407C45.3389 26.1685 44.0152 27.5108 42.3353 28.4677C40.6807 29.398 38.8226 29.8631 36.7608 29.8631ZM36.7608 24.9989C37.7281 24.9989 38.6317 24.7597 39.4717 24.2812C40.3371 23.7762 41.0244 23.032 41.5335 22.0485C42.0425 21.065 42.2971 19.8689 42.2971 18.4601C42.2971 16.3603 41.7625 14.7521 40.6935 13.6358C39.6498 12.4928 38.3644 11.9213 36.8372 11.9213C35.3099 11.9213 34.0245 12.4928 32.9809 13.6358C31.9627 14.7521 31.4536 16.3603 31.4536 18.4601C31.4536 20.56 31.95 22.1814 32.9427 23.3243C33.9608 24.4407 35.2336 24.9989 36.7608 24.9989Z" fill="#909090"/>
<path d="M71.685 7.41594V29.5043H66.3015V26.7134C65.6142 27.6703 64.7106 28.4278 63.5906 28.986C62.4961 29.5176 61.2997 29.7834 60.0016 29.7834C58.347 29.7834 56.8834 29.4246 55.6107 28.7069C54.338 27.9626 53.3326 26.8861 52.5944 25.4774C51.8817 24.042 51.5253 22.3409 51.5253 20.3739V7.41594H56.8707V19.5765C56.8707 21.3308 57.2907 22.6864 58.1307 23.6433C58.9707 24.5736 60.1161 25.0388 61.567 25.0388C63.0433 25.0388 64.2015 24.5736 65.0415 23.6433C65.8815 22.6864 66.3015 21.3308 66.3015 19.5765V7.41594H71.685Z" fill="#909090"/>
<path d="M82.3045 10.8448C82.9917 9.67528 83.8826 8.75826 84.9772 8.09375C86.0972 7.42923 87.3699 7.09698 88.7953 7.09698V12.958H87.3826C85.7026 12.958 84.4299 13.37 83.5645 14.194C82.7245 15.018 82.3045 16.4533 82.3045 18.5V29.5043H76.9591V7.41594H82.3045V10.8448Z" fill="#909090"/>
<path d="M100.681 7.05711C102.259 7.05711 103.646 7.38936 104.843 8.05388C106.039 8.69181 106.981 9.52909 107.668 10.5657V7.41594H113.052V29.6638C113.052 31.7105 112.657 33.5312 111.868 35.1261C111.079 36.7475 109.895 38.0233 108.317 38.9536C106.739 39.9105 104.83 40.389 102.59 40.389C99.5865 40.389 97.1174 39.658 95.1829 38.1961C93.2738 36.7342 92.192 34.7406 91.9375 32.2155H97.2447C97.5247 33.2256 98.1229 34.023 99.0392 34.6077C99.981 35.2191 101.114 35.5248 102.437 35.5248C103.99 35.5248 105.25 35.033 106.217 34.0496C107.185 33.0927 107.668 31.6307 107.668 29.6638V26.2349C106.981 27.2715 106.026 28.1354 104.805 28.8265C103.608 29.5176 102.234 29.8631 100.681 29.8631C98.8992 29.8631 97.2701 29.3847 95.7938 28.4278C94.3175 27.4709 93.1466 26.1286 92.2811 24.4009C91.4411 22.6465 91.0211 20.6397 91.0211 18.3804C91.0211 16.1476 91.4411 14.1674 92.2811 12.4396C93.1466 10.7119 94.3047 9.3829 95.7556 8.45258C97.232 7.52227 98.8738 7.05711 100.681 7.05711ZM107.668 18.4601C107.668 17.1045 107.414 15.9483 106.905 14.9914C106.395 14.0079 105.708 13.2636 104.843 12.7586C103.977 12.227 103.048 11.9612 102.056 11.9612C101.063 11.9612 100.146 12.2137 99.3065 12.7187C98.4665 13.2238 97.7792 13.968 97.2447 14.9515C96.7356 15.9084 96.4811 17.0514 96.4811 18.3804C96.4811 19.7094 96.7356 20.8789 97.2447 21.889C97.7792 22.8725 98.4665 23.63 99.3065 24.1616C100.172 24.6932 101.088 24.959 102.056 24.959C103.048 24.959 103.977 24.7065 104.843 24.2015C105.708 23.6699 106.395 22.9256 106.905 21.9687C107.414 20.9853 107.668 19.8157 107.668 18.4601Z" fill="#909090"/>
<path d="M123.618 0V29.5043H118.272V0H123.618Z" fill="#909090"/>
<path d="M127.525 18.3804C127.525 16.1476 127.945 14.1674 128.784 12.4396C129.65 10.7119 130.808 9.3829 132.259 8.45258C133.735 7.52227 135.377 7.05711 137.184 7.05711C138.763 7.05711 140.137 7.38936 141.308 8.05388C142.504 8.71839 143.459 9.55567 144.172 10.5657V7.41594H149.555V29.5043H144.172V26.2748C143.484 27.3114 142.53 28.1753 141.308 28.8664C140.112 29.5309 138.724 29.8631 137.146 29.8631C135.364 29.8631 133.735 29.3847 132.259 28.4278C130.808 27.4709 129.65 26.1286 128.784 24.4009C127.945 22.6465 127.525 20.6397 127.525 18.3804ZM144.172 18.4601C144.172 17.1045 143.917 15.9483 143.408 14.9914C142.899 14.0079 142.212 13.2636 141.346 12.7586C140.481 12.227 139.552 11.9612 138.559 11.9612C137.566 11.9612 136.65 12.2137 135.81 12.7187C134.97 13.2238 134.283 13.968 133.748 14.9515C133.239 15.9084 132.984 17.0514 132.984 18.3804C132.984 19.7094 133.239 20.8789 133.748 21.889C134.283 22.8725 134.97 23.63 135.81 24.1616C136.675 24.6932 137.592 24.959 138.559 24.959C139.552 24.959 140.481 24.7065 141.346 24.2015C142.212 23.6699 142.899 22.9256 143.408 21.9687C143.917 20.9853 144.172 19.8157 144.172 18.4601Z" fill="#909090"/>
<path d="M162.87 29.8631C161.139 29.8631 159.587 29.5442 158.212 28.9062C156.838 28.2417 155.743 27.3513 154.929 26.2349C154.139 25.1185 153.707 23.8825 153.63 22.5269H159.014C159.116 23.3775 159.51 24.0819 160.198 24.6401C160.91 25.1983 161.788 25.4774 162.832 25.4774C163.85 25.4774 164.639 25.2647 165.199 24.8394C165.785 24.4141 166.077 23.8692 166.077 23.2047C166.077 22.4871 165.721 21.9555 165.008 21.6099C164.321 21.2378 163.214 20.8391 161.687 20.4138C160.108 20.0151 158.81 19.6031 157.792 19.1778C156.799 18.7525 155.934 18.1013 155.196 17.2241C154.483 16.347 154.127 15.1641 154.127 13.6756C154.127 12.4529 154.458 11.3366 155.119 10.3265C155.807 9.31645 156.774 8.51903 158.021 7.93426C159.294 7.34949 160.783 7.05711 162.488 7.05711C165.008 7.05711 167.019 7.72162 168.521 9.05064C170.023 10.3531 170.85 12.1207 171.003 14.3534H165.887C165.81 13.4763 165.454 12.7852 164.817 12.2802C164.207 11.7486 163.379 11.4828 162.336 11.4828C161.368 11.4828 160.618 11.6688 160.083 12.0409C159.574 12.4131 159.319 12.9314 159.319 13.5959C159.319 14.3402 159.676 14.9116 160.388 15.3103C161.101 15.6825 162.208 16.0679 163.71 16.4666C165.237 16.8653 166.497 17.2773 167.49 17.7026C168.483 18.1279 169.336 18.7924 170.048 19.6961C170.786 20.5733 171.168 21.7428 171.194 23.2047C171.194 24.4806 170.85 25.6236 170.163 26.6336C169.501 27.6437 168.534 28.4411 167.261 29.0258C166.014 29.584 164.55 29.8631 162.87 29.8631Z" fill="#909090"/>
<path d="M183.676 29.8631C181.945 29.8631 180.392 29.5442 179.018 28.9062C177.643 28.2417 176.549 27.3513 175.734 26.2349C174.945 25.1185 174.513 23.8825 174.436 22.5269H179.82C179.922 23.3775 180.316 24.0819 181.003 24.6401C181.716 25.1983 182.594 25.4774 183.638 25.4774C184.656 25.4774 185.445 25.2647 186.005 24.8394C186.591 24.4141 186.883 23.8692 186.883 23.2047C186.883 22.4871 186.527 21.9555 185.814 21.6099C185.127 21.2378 184.02 20.8391 182.492 20.4138C180.914 20.0151 179.616 19.6031 178.598 19.1778C177.605 18.7525 176.74 18.1013 176.002 17.2241C175.289 16.347 174.933 15.1641 174.933 13.6756C174.933 12.4529 175.263 11.3366 175.925 10.3265C176.612 9.31645 177.58 8.51903 178.827 7.93426C180.1 7.34949 181.589 7.05711 183.294 7.05711C185.814 7.05711 187.825 7.72162 189.327 9.05064C190.829 10.3531 191.656 12.1207 191.809 14.3534H186.692C186.616 13.4763 186.26 12.7852 185.623 12.2802C185.012 11.7486 184.185 11.4828 183.141 11.4828C182.174 11.4828 181.423 11.6688 180.889 12.0409C180.38 12.4131 180.125 12.9314 180.125 13.5959C180.125 14.3402 180.482 14.9116 181.194 15.3103C181.907 15.6825 183.014 16.0679 184.516 16.4666C186.043 16.8653 187.303 17.2773 188.296 17.7026C189.289 18.1279 190.141 18.7924 190.854 19.6961C191.592 20.5733 191.974 21.7428 192 23.2047C192 24.4806 191.656 25.6236 190.969 26.6336C190.307 27.6437 189.34 28.4411 188.067 29.0258C186.82 29.584 185.356 29.8631 183.676 29.8631Z" fill="#909090"/>
</svg>
