<svg width="41" height="36" viewBox="0 0 41 36" fill="none" xmlns="http://www.w3.org/2000/svg">
<path fill-rule="evenodd" clip-rule="evenodd" d="M12.8679 23.4C10.8797 23.4 9.26792 21.7882 9.26792 19.8C9.26792 17.8118 10.8797 16.2 12.8679 16.2C13.1853 16.2 13.4931 16.2411 13.7863 16.3182L18.3767 11.7278C18.2943 11.4255 18.2503 11.1073 18.2503 10.7789C18.2503 8.79068 19.8621 7.17891 21.8503 7.17891C23.8386 7.17891 25.4503 8.79068 25.4503 10.7789C25.4503 11.754 25.0627 12.6386 24.433 13.2868L26.3201 19.8915C27.8957 20.2752 29.0653 21.6958 29.0653 23.3895C29.0653 25.3777 27.4535 26.9895 25.4653 26.9895C23.7839 26.9895 22.3718 25.8368 21.9759 24.2786L15.3677 22.3905C14.7202 23.0155 13.839 23.4 12.8679 23.4ZM16.3622 18.9306L22.8294 20.7784L20.97 14.2705C20.9581 14.2675 20.9462 14.2644 20.9343 14.2613L16.3422 18.8535C16.3491 18.8791 16.3558 18.9048 16.3622 18.9306Z" fill="white"/>
<path fill-rule="evenodd" clip-rule="evenodd" d="M0 18L10 0H30.1183L40.1183 18L30.1183 36H10L0 18ZM4.11825 18L12.1183 32.4H28L36 18L28 3.6H12.1183L4.11825 18Z" fill="white"/>
</svg>
