<svg width="56" height="59" viewBox="0 0 56 59" fill="none" xmlns="http://www.w3.org/2000/svg">
<g filter="url(#filter0_d_3_2091)">
<path fill-rule="evenodd" clip-rule="evenodd" d="M4 10.5333C4 7.54639 4 6.05291 4.5813 4.91205C5.09262 3.90852 5.90852 3.09262 6.91205 2.5813C8.05291 2 9.54639 2 12.5333 2H43.4667C46.4536 2 47.9471 2 49.088 2.5813C50.0915 3.09262 50.9074 3.90852 51.4187 4.91205C52 6.05291 52 7.54639 52 10.5333V33.4667C52 36.4536 52 37.9471 51.4187 39.088C50.9074 40.0915 50.0915 40.9074 49.088 41.4187C47.9471 42 46.4536 42 43.4667 42H31.771L37.8856 48.1146C38.927 49.156 38.927 50.8444 37.8856 51.8858C36.8442 52.9272 35.1558 52.9272 34.1144 51.8858L28 45.7715L21.8856 51.8858C20.8442 52.9272 19.1558 52.9272 18.1144 51.8858C17.073 50.8444 17.073 49.156 18.1144 48.1146L24.229 42H12.5333C9.54639 42 8.05291 42 6.91205 41.4187C5.90852 40.9074 5.09262 40.0915 4.5813 39.088C4 37.9471 4 36.4536 4 33.4667V10.5333ZM40.2621 13.1967C41.4422 14.0779 41.6846 15.7488 40.8034 16.9289L33.8296 26.2689C32.9614 27.4317 31.3733 27.7849 30.094 27.0995L24.9939 24.3673L19.2828 30.4863C18.2779 31.563 16.5905 31.6212 15.5138 30.6163C14.4372 29.6114 14.379 27.924 15.3839 26.8473L22.355 19.3783C23.2628 18.4056 24.7117 18.1657 25.8846 18.7941L30.7919 21.423L36.5299 13.7381C37.4111 12.558 39.082 12.3156 40.2621 13.1967Z" fill="url(#paint0_linear_3_2091)"/>
</g>
<defs>
<filter id="filter0_d_3_2091" x="0" y="0" width="56" height="58.667" filterUnits="userSpaceOnUse" color-interpolation-filters="sRGB">
<feFlood flood-opacity="0" result="BackgroundImageFix"/>
<feColorMatrix in="SourceAlpha" type="matrix" values="0 0 0 0 0 0 0 0 0 0 0 0 0 0 0 0 0 0 127 0" result="hardAlpha"/>
<feOffset dy="1"/>
<feGaussianBlur stdDeviation="1"/>
<feComposite in2="hardAlpha" operator="out"/>
<feColorMatrix type="matrix" values="0 0 0 0 0.0627451 0 0 0 0 0.0941176 0 0 0 0 0.156863 0 0 0 0.04 0"/>
<feBlend mode="normal" in2="BackgroundImageFix" result="effect1_dropShadow_3_2091"/>
<feBlend mode="normal" in="SourceGraphic" in2="effect1_dropShadow_3_2091" result="shape"/>
</filter>
<linearGradient id="paint0_linear_3_2091" x1="28" y1="2" x2="28" y2="52.6669" gradientUnits="userSpaceOnUse">
<stop stop-color="#FFA9BC"/>
<stop offset="1" stop-color="#EF083A"/>
</linearGradient>
</defs>
</svg>
