<svg width="63" height="63" viewBox="0 0 63 63" fill="none" xmlns="http://www.w3.org/2000/svg">
<g filter="url(#filter0_d_3_2107)">
<path d="M34.0248 21.317C30.9001 18.1923 30.9001 13.1262 34.0248 10.0016L39.6825 4.34382C42.8072 1.21914 47.8733 1.21914 50.998 4.34382L56.6557 10.0016C59.7804 13.1262 59.7804 18.1923 56.6557 21.317L50.998 26.9747C47.8733 30.0994 42.8072 30.0994 39.6825 26.9747L34.0248 21.317Z" fill="url(#paint0_linear_3_2107)"/>
<path d="M12.0019 27.6611C7.5829 27.6611 4.00062 24.0789 4.00062 19.6599V11.6587C4.00062 7.2397 7.5829 3.65742 12.0019 3.65742H20.0031C24.4221 3.65742 28.0043 7.2397 28.0043 11.6587V19.6599C28.0043 24.0789 24.4221 27.6611 20.0031 27.6611H12.0019Z" fill="url(#paint1_linear_3_2107)"/>
<path d="M12.0019 56.999C7.5829 56.999 4.00062 53.4168 4.00062 48.9978V40.9965C4.00062 36.5776 7.5829 32.9953 12.0019 32.9953H20.0031C24.4221 32.9953 28.0043 36.5776 28.0043 40.9965V48.9978C28.0043 53.4168 24.4221 56.999 20.0031 56.999H12.0019Z" fill="url(#paint2_linear_3_2107)"/>
<path d="M41.3397 56.999C36.9208 56.999 33.3385 53.4168 33.3385 48.9978V40.9965C33.3385 36.5776 36.9208 32.9953 41.3397 32.9953H49.341C53.7599 32.9953 57.3422 36.5776 57.3422 40.9965V48.9978C57.3422 53.4168 53.7599 56.999 49.341 56.999H41.3397Z" fill="url(#paint3_linear_3_2107)"/>
</g>
<defs>
<filter id="filter0_d_3_2107" x="0" y="0" width="62.9998" height="63" filterUnits="userSpaceOnUse" color-interpolation-filters="sRGB">
<feFlood flood-opacity="0" result="BackgroundImageFix"/>
<feColorMatrix in="SourceAlpha" type="matrix" values="0 0 0 0 0 0 0 0 0 0 0 0 0 0 0 0 0 0 127 0" result="hardAlpha"/>
<feOffset dy="1"/>
<feGaussianBlur stdDeviation="1"/>
<feComposite in2="hardAlpha" operator="out"/>
<feColorMatrix type="matrix" values="0 0 0 0 0.0627451 0 0 0 0 0.0941176 0 0 0 0 0.156863 0 0 0 0.04 0"/>
<feBlend mode="normal" in2="BackgroundImageFix" result="effect1_dropShadow_3_2107"/>
<feBlend mode="normal" in="SourceGraphic" in2="effect1_dropShadow_3_2107" result="shape"/>
</filter>
<linearGradient id="paint0_linear_3_2107" x1="31.4999" y1="2.00031" x2="31.4999" y2="56.999" gradientUnits="userSpaceOnUse">
<stop stop-color="#FFA9BC"/>
<stop offset="1" stop-color="#EF083A"/>
</linearGradient>
<linearGradient id="paint1_linear_3_2107" x1="31.4999" y1="2.00031" x2="31.4999" y2="56.999" gradientUnits="userSpaceOnUse">
<stop stop-color="#FFA9BC"/>
<stop offset="1" stop-color="#EF083A"/>
</linearGradient>
<linearGradient id="paint2_linear_3_2107" x1="31.4999" y1="2.00031" x2="31.4999" y2="56.999" gradientUnits="userSpaceOnUse">
<stop stop-color="#FFA9BC"/>
<stop offset="1" stop-color="#EF083A"/>
</linearGradient>
<linearGradient id="paint3_linear_3_2107" x1="31.4999" y1="2.00031" x2="31.4999" y2="56.999" gradientUnits="userSpaceOnUse">
<stop stop-color="#FFA9BC"/>
<stop offset="1" stop-color="#EF083A"/>
</linearGradient>
</defs>
</svg>
