<svg width="36" height="36" viewBox="0 0 36 36" fill="none" xmlns="http://www.w3.org/2000/svg">
<path d="M18 3.27273C9.86635 3.27273 3.27273 9.86635 3.27273 18V19.6364H0V18C0 8.05887 8.05887 0 18 0C24.0898 0 29.4709 3.02407 32.7273 7.64867V1.63636H36V13.0909H24.5455V9.81818H30.2477C27.6045 5.86955 23.1042 3.27273 18 3.27273Z" fill="white"/>
<path d="M35.9999 16.3636V18C35.9999 27.9411 27.941 36 17.9999 36C11.9101 36 6.52911 32.976 3.27273 28.3515V34.3636H0V22.9091H11.4545V26.1818H5.75222C8.39536 30.1304 12.8957 32.7273 17.9999 32.7273C26.1336 32.7273 32.7272 26.1336 32.7272 18V16.3636H35.9999Z" fill="white"/>
</svg>
